# xmcd CD database file generated by Grip 2.95
# 
# Track frame offsets:
#       150
#       13575
#       24875
#       38529
#       50584
#       62280
#       73098
#       84750
#       95082
#       104550
#       115299
#       127576
#       137540
#       148791
#       162372
#       175915
#       187053
#       198441
#       207793
#       219381
# 
# Disc length: 3093 seconds
# 
# Revision: 3
# Processed by: cddbd v1.4PL0 Copyright (c) Steve Scherf et al.
# Submitted via: Grip 2.95
# 
DISCID=110c1314
DTITLE=Various Artist - Big Rig Hits Vol. 1
DYEAR=1900
DGENRE=
TTITLE0=Truck Driver's Blues - Cliff Bruner and His Boys
TTITLE1=Truck Driver's Coffee Shop - Dick Reinhart and His Love Star Boys
TTITLE2=Truck Driver's Sweetheart - Karl and Harty
TTITLE3=I'm a Truck Driving Man - Art Gibson
TTITLE4=Truck Driver's Boogie - Milo Twins
TTITLE5=Truck Driver's Night Run Blues - Joe "Cannonball" Lewis
TTITLE6=Diesel Smoke (Dangerous Curves) - Doye O'Dell
TTITLE7=Truck Driving Man - Terry Fell and the Fellers
TTITLE8=I'm Coming Home - Johnny Horton
TTITLE9=Six Days On the Road - Dave Dudley
TTITLE10=Girl on the Billboard - Del Reeves
TTITLE11=Little Pink Mack - Kay Adams
TTITLE12=Highway Man - Curtis Leach
TTITLE13=A Tombstone Every Mile - Dick Curless
TTITLE14=Widow Maker - Jimmy Martin
TTITLE15=Diesel on My Tail - Jim and Jesse and the Virginia Boys
TTITLE16=Truck Driving Cat with Nine Wives - Jim Nesbitt
TTITLE17=Gear Bustin' Sort of a Feller - Bobby Braddock
TTITLE18=Big Rig Rollin' Man - Johnny $ Dollar
TTITLE19=Roll, Truck, Roll - Red Simpson
EXTD=
EXTT0=
EXTT1=
EXTT2=
EXTT3=
EXTT4=
EXTT5=
EXTT6=
EXTT7=
EXTT8=
EXTT9=
EXTT10=
EXTT11=
EXTT12=
EXTT13=
EXTT14=
EXTT15=
EXTT16=
EXTT17=
EXTT18=
EXTT19=
PLAYORDER=
